<?xml version="1.0" encoding="UTF-8"?>
<svg width="11px" height="11px" viewBox="0 0 11 11" version="1.1" xmlns="http://www.w3.org/2000/svg" xmlns:xlink="http://www.w3.org/1999/xlink">
    <!-- Generator: Sketch 55.1 (78136) - https://sketchapp.com -->
    <title>right-arrow</title>
    <desc>Created with Sketch.</desc>
    <g id="Welcome" stroke="none" stroke-width="1" fill="none" fill-rule="evenodd">
        <g id="Desktop-HD" transform="translate(-32.000000, -801.000000)" fill="#000000" fill-rule="nonzero">
            <g id="Group" transform="translate(32.000000, 796.000000)">
                <g id="right-arrow" transform="translate(0.000000, 5.000000)">
                    <path d="M10.7484209,5.11560817 L0.556884187,0.0386850962 C0.394603563,-0.0408533654 0.200964365,0.00653125 0.0880734967,0.157146635 C-0.0256013363,0.307762019 -0.0295211581,0.521838942 0.0786659243,0.676685096 L3.43011359,5.49976202 L0.0786659243,10.3228389 C-0.0295211581,10.4776851 -0.0256013363,10.6926082 0.0872895323,10.8423774 C0.163334076,10.944762 0.277008909,10.999762 0.39225167,10.999762 C0.44791314,10.999762 0.50357461,10.9870697 0.556100223,10.9608389 L10.747637,5.88391587 C10.8871826,5.81453125 10.9757706,5.66476202 10.9757706,5.49976202 C10.9757706,5.33476202 10.8871826,5.18499279 10.7484209,5.11560817 Z" id="Path"></path>
                </g>
            </g>
        </g>
    </g>
</svg>