<?xml version="1.0" encoding="UTF-8"?>
<svg width="58px" height="82px" viewBox="0 0 58 82" version="1.1" xmlns="http://www.w3.org/2000/svg" xmlns:xlink="http://www.w3.org/1999/xlink">
    <!-- Generator: Sketch 55.1 (78136) - https://sketchapp.com -->
    <title>book-with-bookmark</title>
    <desc>Created with Sketch.</desc>
    <g id="Welcome" stroke="none" stroke-width="1" fill="none" fill-rule="evenodd">
        <g id="Header" transform="translate(-837.000000, -47.000000)" fill="#000000" fill-rule="nonzero">
            <g id="book-with-bookmark" transform="translate(837.000000, 47.000000)">
                <path d="M5.11256545,71.6367002 C4.94401933,71.6367002 4.80628272,71.4893354 4.80628272,71.3090076 L4.80628272,66.7116164 L3.32198953,66.7116164 C2.13129279,66.7116164 1.02215062,66.4789353 0,66 L0,71.194606 C0,74.1806804 1.92287555,77 4.80628272,77 C5.73781716,77 9,77 9,77 L9,71.6367002 L5.11256545,71.6367002 L5.11256545,71.6367002 Z" id="Path"></path>
                <path d="M52.4897032,64.476522 C51.5716296,67.6943425 48.5188028,70.0988482 44.865055,70.0988482 L29,70.0988482 L29,75 L44.865055,75 C52.1465848,75 58,69.4202 58,62.4582964 L58,61 C56.5347915,62.4706999 54.5706702,63.6738388 52.4897032,64.476522 Z" id="Path"></path>
                <path d="M46.0693187,0 L3.42638106,0 C1.55252053,0 0,1.46022017 0,3.32409356 L0,57.6238222 C0,59.4876955 1.55252053,61 3.42638106,61 L46.0693187,61 C52.6567885,61 58,55.6799622 58,49.1099015 L58,11.8380142 C57.9981317,5.27167383 52.6567885,0 46.0693187,0 Z" id="Path"></path>
                <path d="M13,80.9325776 C13,81.3312079 13.2007874,81.7014996 13.5748031,81.8847562 C13.7322835,81.9622151 13.8858268,82 14.0590551,82 C14.2874016,82 14.5098425,81.930098 14.7047244,81.7940725 L18.7893701,78.9054198 C18.9862205,78.7693943 19.2106299,78.697603 19.4448819,78.697603 C19.6791339,78.697603 19.9074803,78.7693943 20.1043307,78.9054198 L24.1929134,81.7940725 C24.3858268,81.930098 24.6161417,82 24.8484252,82 C25.0216535,82 25.2106299,81.9622151 25.3720472,81.8847562 C25.746063,81.6996103 26,81.3312079 26,80.9325776 L26,66 L13,66 L13,80.9325776 L13,80.9325776 Z" id="Path"></path>
            </g>
        </g>
    </g>
</svg>