<?xml version="1.0" encoding="UTF-8"?>
<svg width="22px" height="22px" viewBox="0 0 22 22" version="1.1" xmlns="http://www.w3.org/2000/svg" xmlns:xlink="http://www.w3.org/1999/xlink">
    <!-- Generator: Sketch 55.1 (78136) - https://sketchapp.com -->
    <title>calendar-in-a-circle-interface-symbol</title>
    <desc>Created with Sketch.</desc>
    <g id="Welcome" stroke="none" stroke-width="1" fill="none" fill-rule="evenodd">
        <g id="Portfolio-single" transform="translate(-35.000000, -457.000000)" fill="#000000" fill-rule="nonzero">
            <g id="Group-6" transform="translate(32.000000, 452.000000)">
                <g id="calendar-in-a-circle-interface-symbol" transform="translate(3.000000, 5.000000)">
                    <path d="M5.4401875,16.55225 L16.5598125,16.55225 L16.5598125,9.4661875 L5.4401875,9.4661875 L5.4401875,16.55225 Z M12.7325,11.0006875 L14.389375,11.0006875 L14.389375,12.656875 L12.7325,12.656875 L12.7325,11.0006875 Z M12.7325,13.5623125 L14.389375,13.5623125 L14.389375,15.2185 L12.7325,15.2185 L12.7325,13.5623125 Z M10.1715625,11.0006875 L11.829125,11.0006875 L11.829125,12.656875 L10.1715625,12.656875 L10.1715625,11.0006875 Z M10.170875,13.5623125 L11.8284375,13.5623125 L11.8284375,15.2185 L10.170875,15.2185 L10.170875,13.5623125 L10.170875,13.5623125 Z M7.610625,13.5623125 L9.2675,13.5623125 L9.2675,15.2185 L7.610625,15.2185 L7.610625,13.5623125 Z" id="Shape"></path>
                    <path d="M11,0 C4.923875,0 0,4.9245625 0,11 C0,17.076125 4.923875,22 11,22 C17.0754375,22 22,17.076125 22,11 C22,4.9245625 17.0754375,0 11,0 Z M17.3270625,17.8165625 L4.6729375,17.8165625 L4.6729375,5.1624375 L6.0176875,5.1624375 L6.0176875,4.1834375 L6.5484375,4.1834375 L6.5484375,5.1624375 L8.375125,5.1624375 L8.375125,4.1834375 L8.9065625,4.1834375 L8.9065625,5.1624375 L10.73325,5.1624375 L10.73325,4.1834375 L11.2646875,4.1834375 L11.2646875,5.1624375 L13.091375,5.1624375 L13.091375,4.1834375 L13.622125,4.1834375 L13.622125,5.1624375 L15.4495,5.1624375 L15.4495,4.1834375 L15.9795625,4.1834375 L15.9795625,5.1624375 L17.325,5.1624375 L17.325,17.8165625 L17.3270625,17.8165625 Z" id="Shape"></path>
                </g>
            </g>
        </g>
    </g>
</svg>