<?xml version="1.0" encoding="UTF-8"?>
<svg width="62px" height="50px" viewBox="0 0 62 50" version="1.1" xmlns="http://www.w3.org/2000/svg" xmlns:xlink="http://www.w3.org/1999/xlink">
    <!-- Generator: Sketch 55.1 (78136) - https://sketchapp.com -->
    <title>photo-camera</title>
    <desc>Created with Sketch.</desc>
    <g id="Welcome" stroke="none" stroke-width="1" fill="none" fill-rule="evenodd">
        <g id="Gallery" transform="translate(-838.000000, -278.000000)" fill="#030104" fill-rule="nonzero">
            <g id="photo-camera" transform="translate(838.000000, 278.000000)">
                <path d="M31,18.75 C25.8633,18.75 21.7,22.94875 21.7,28.125 C21.7,33.303125 25.8633,37.5 31,37.5 C36.13546,37.5 40.3,33.303125 40.3,28.125 C40.3,22.94875 36.13546,18.75 31,18.75 Z M55.8,9.375 L48.36,9.375 C47.337,9.375 46.23464,8.575 45.91162,7.59625 L43.98838,1.778125 C43.66412,0.8 42.563,0 41.54,0 L20.46,0 C19.437,0 18.33464,0.8 18.01162,1.77875 L16.08838,7.596875 C15.76412,8.575 14.663,9.375 13.64,9.375 L6.2,9.375 C2.79,9.375 0,12.1875 0,15.625 L0,43.75 C0,47.1875 2.79,50 6.2,50 L55.8,50 C59.21,50 62,47.1875 62,43.75 L62,15.625 C62,12.1875 59.21,9.375 55.8,9.375 Z M31,43.75 C22.43966,43.75 15.5,36.754375 15.5,28.125 C15.5,19.49625 22.43966,12.5 31,12.5 C39.5591,12.5 46.5,19.49625 46.5,28.125 C46.5,36.754375 39.5591,43.75 31,43.75 Z M53.63,19.995625 C52.43216,19.995625 51.46,19.016875 51.46,17.808125 C51.46,16.600625 52.43216,15.620625 53.63,15.620625 C54.82908,15.620625 55.8,16.600625 55.8,17.808125 C55.8,19.016875 54.82846,19.995625 53.63,19.995625 Z" id="Shape"></path>
            </g>
        </g>
    </g>
</svg>