<?xml version="1.0" encoding="UTF-8"?>
<svg width="22px" height="22px" viewBox="0 0 22 22" version="1.1" xmlns="http://www.w3.org/2000/svg" xmlns:xlink="http://www.w3.org/1999/xlink">
    <!-- Generator: Sketch 55.1 (78136) - https://sketchapp.com -->
    <title>email</title>
    <desc>Created with Sketch.</desc>
    <g id="Welcome" stroke="none" stroke-width="1" fill="none" fill-rule="evenodd">
        <g id="Desktop-HD" transform="translate(-32.000000, -407.000000)" fill="#000000" fill-rule="nonzero">
            <g id="email" transform="translate(32.000000, 407.000000)">
                <path d="M10.9997067,0 C4.92484667,0 7.33333333e-05,4.92492 7.33333333e-05,10.99978 C7.33333333e-05,17.0744933 4.92484667,21.99978 10.9997067,21.99978 C17.0745667,21.99978 21.9997067,17.0744933 21.9997067,10.99978 C21.9997067,4.92492 17.0745667,0 10.9997067,0 Z M10.9999267,3.86364 L17.5092133,7.92264 L4.49064,7.92264 L10.9999267,3.86364 Z M17.59032,14.4043533 L17.58966,14.4043533 C17.58966,15.0554067 17.0620267,15.5829667 16.4110467,15.5829667 L5.58880667,15.5829667 C4.93775333,15.5829667 4.41019333,15.0553333 4.41019333,14.4043533 L4.41019333,8.18092 C4.41019333,8.11206 4.41723333,8.04510667 4.42867333,7.97932667 L10.6479267,11.8574133 C10.6555533,11.86218 10.6636933,11.8654067 10.67154,11.8698067 C10.6797533,11.8743533 10.6881133,11.8787533 10.6964733,11.8829333 C10.7404,11.9055933 10.7856467,11.9238533 10.83192,11.9358067 C10.8366867,11.9371267 10.8414533,11.9377133 10.84622,11.9388133 C10.8969667,11.9507667 10.9483733,11.9582467 10.9997067,11.9582467 L11.0000733,11.9582467 C11.00044,11.9582467 11.0008067,11.9582467 11.0008067,11.9582467 C11.05214,11.9582467 11.1035467,11.9509867 11.1542933,11.9388133 C11.15906,11.93764 11.1638267,11.9371267 11.1685933,11.9358067 C11.2147933,11.9238533 11.2598933,11.9055933 11.30404,11.8829333 C11.3124,11.8787533 11.32076,11.8743533 11.3289733,11.8698067 C11.3367467,11.8654067 11.34496,11.86218 11.3525867,11.8574133 L17.57184,7.97932667 C17.58328,8.04510667 17.59032,8.11191333 17.59032,8.18092 L17.59032,14.4043533 Z" id="Shape"></path>
            </g>
        </g>
    </g>
</svg>