<?xml version="1.0" encoding="UTF-8"?>
<svg width="22px" height="22px" viewBox="0 0 22 22" version="1.1" xmlns="http://www.w3.org/2000/svg" xmlns:xlink="http://www.w3.org/1999/xlink">
    <!-- Generator: Sketch 55.1 (78136) - https://sketchapp.com -->
    <title>facebook-logo-button</title>
    <desc>Created with Sketch.</desc>
    <g id="Welcome" stroke="none" stroke-width="1" fill="none" fill-rule="evenodd">
        <g id="Desktop-HD" transform="translate(-32.000000, -1098.000000)" fill="#000000" fill-rule="nonzero">
            <g id="facebook-logo-button" transform="translate(32.000000, 1098.000000)">
                <path d="M10.92344,0 C4.90028,0 0,4.90028 0,10.92344 C0,16.94616 4.90028,21.84688 10.92344,21.84688 C16.94616,21.84688 21.84688,16.94616 21.84688,10.92344 C21.84688,4.90028 16.94704,0 10.92344,0 Z M13.64,11.308 L11.86284,11.308 C11.86284,14.14732 11.86284,17.64224 11.86284,17.64224 L9.22944,17.64224 C9.22944,17.64224 9.22944,14.1812 9.22944,11.308 L7.97764,11.308 L7.97764,9.06928 L9.22944,9.06928 L9.22944,7.62124 C9.22944,6.58416 9.72224,4.96364 11.88704,4.96364 L13.83844,4.97112 L13.83844,7.14428 C13.83844,7.14428 12.65264,7.14428 12.42208,7.14428 C12.19152,7.14428 11.86372,7.25956 11.86372,7.75412 L11.86372,9.06972 L13.87012,9.06972 L13.64,11.308 Z" id="Shape"></path>
            </g>
        </g>
    </g>
</svg>