<?xml version="1.0" encoding="UTF-8"?>
<svg width="200px" height="200px" viewBox="0 0 200 200" version="1.1" xmlns="http://www.w3.org/2000/svg" xmlns:xlink="http://www.w3.org/1999/xlink">
    <!-- Generator: Sketch 55.1 (78136) - https://sketchapp.com -->
    <title>Group</title>
    <desc>Created with Sketch.</desc>
    <g id="Symbols" stroke="none" stroke-width="1" fill="none" fill-rule="evenodd" opacity="0.5">
        <g id="gallery_item">
            <g id="Group-8">
                <g id="Group">
                    <rect id="Rectangle" fill="#D8D8D8" x="0" y="0" width="200" height="200"></rect>
                    <g id="photo-camera" transform="translate(50.000000, 60.000000)" fill="#030104" fill-rule="nonzero">
                        <path d="M50,30 C41.715,30 35,36.718 35,45 C35,53.285 41.715,60 50,60 C58.283,60 65,53.285 65,45 C65,36.718 58.283,30 50,30 Z M90,15 L78,15 C76.35,15 74.572,13.72 74.051,12.154 L70.949,2.845 C70.426,1.28 68.65,0 67,0 L33,0 C31.35,0 29.572,1.28 29.051,2.846 L25.949,12.155 C25.426,13.72 23.65,15 22,15 L10,15 C4.5,15 0,19.5 0,25 L0,70 C0,75.5 4.5,80 10,80 L90,80 C95.5,80 100,75.5 100,70 L100,25 C100,19.5 95.5,15 90,15 Z M50,70 C36.193,70 25,58.807 25,45 C25,31.194 36.193,20 50,20 C63.805,20 75,31.194 75,45 C75,58.807 63.805,70 50,70 Z M86.5,31.993 C84.568,31.993 83,30.427 83,28.493 C83,26.561 84.568,24.993 86.5,24.993 C88.434,24.993 90,26.561 90,28.493 C90,30.427 88.433,31.993 86.5,31.993 Z" id="Shape"></path>
                    </g>
                </g>
            </g>
        </g>
    </g>
</svg>