<?xml version="1.0" encoding="UTF-8"?>
<svg width="82px" height="82px" viewBox="0 0 82 82" version="1.1" xmlns="http://www.w3.org/2000/svg" xmlns:xlink="http://www.w3.org/1999/xlink">
    <!-- Generator: Sketch 55.1 (78136) - https://sketchapp.com -->
    <title>image-gallery</title>
    <desc>Created with Sketch.</desc>
    <g id="Welcome" stroke="none" stroke-width="1" fill="none" fill-rule="evenodd">
        <g id="Header" transform="translate(-1086.000000, -47.000000)" fill="#000000" fill-rule="nonzero">
            <g id="image-gallery" transform="translate(1086.000000, 47.000000)">
                <path d="M12.5793234,55.1744283 L12.5793234,20 L7.19072623,20 C3.20754067,20 0,23.2573527 0,27.2369803 L0,74.7932627 C0,78.7782273 3.20754067,82 7.19072623,82 L54.7487877,82 C58.7301943,82 62,78.7782273 62,74.7932627 L62,69.5985768 L27.0034719,69.5985768 C19.0940289,69.6003558 12.5793234,63.0856503 12.5793234,55.1744283 Z" id="Path"></path>
                <path d="M74.7932627,0 L27.2334223,0 C23.2520157,0 20,3.22533069 20,7.20673725 L20,54.7647987 C20,58.7515423 23.2537947,62 27.2334223,62 L74.7932627,62 C78.7728903,62 82,58.7515423 82,54.7647987 L82,7.20851625 C82,3.22355169 78.7728903,0 74.7932627,0 Z M73.8148116,50.7709391 C73.4180942,51.503888 72.6549023,51.9379645 71.8223293,51.9379645 L31.0707297,51.9379645 C30.3537919,51.9379645 29.6795501,51.6177441 29.2525896,51.0449055 C28.8256291,50.4685088 28.695762,49.73556 28.9021262,49.0470862 L34.7319159,29.7644831 C35.1161803,28.4960546 36.1871395,27.5585206 37.496485,27.3432613 C38.8058305,27.1297811 40.122292,27.6812717 40.8908209,28.7611259 L49.0422083,40.212562 C50.1398525,41.7549568 52.2657599,42.1374423 53.8259447,41.073599 L61.3315543,35.9767582 C62.1036412,35.4519526 63.0518493,35.2615994 63.9644773,35.4448366 C64.8806634,35.6262948 65.6829933,36.1706694 66.1935669,36.9534303 L73.7169665,48.4671315 C74.172391,49.1662793 74.2097501,50.0415483 73.8148116,50.7709391 Z" id="Shape"></path>
            </g>
        </g>
    </g>
</svg>