<?xml version="1.0" encoding="UTF-8"?>
<svg width="22px" height="22px" viewBox="0 0 22 22" version="1.1" xmlns="http://www.w3.org/2000/svg" xmlns:xlink="http://www.w3.org/1999/xlink">
    <!-- Generator: Sketch 55.1 (78136) - https://sketchapp.com -->
    <title>settings</title>
    <desc>Created with Sketch.</desc>
    <g id="Welcome" stroke="none" stroke-width="1" fill="none" fill-rule="evenodd">
        <g id="Portfolio-single" transform="translate(-32.000000, -776.000000)" fill="#000000" fill-rule="nonzero">
            <g id="Group-2" transform="translate(32.000000, 771.000000)">
                <g id="settings" transform="translate(0.000000, 5.000000)">
                    <circle id="Oval" cx="10.9997067" cy="11.44528" r="2.06778"></circle>
                    <path d="M10.9997067,0 C4.92484667,0 7.33333333e-05,4.92514 7.33333333e-05,10.99978 C7.33333333e-05,17.07442 4.92484667,22 10.9997067,22 C17.0745667,22 21.9999267,17.0747133 21.9999267,10.99978 C21.9999267,4.92484667 17.0745667,0 10.9997067,0 Z M16.7802067,12.5985933 L15.2176933,12.6992067 C15.1302067,12.9940067 15.0136067,13.2760467 14.8696533,13.54122 L15.9027733,14.7174133 L14.2714733,16.3485667 L13.0958667,15.3152267 C12.8305467,15.4590333 12.5485067,15.5756333 12.2538533,15.6629 L12.1528733,17.2257067 L9.84595333,17.2254867 L9.74512,15.6628267 C9.45068667,15.57556 9.16864667,15.45896 8.90332667,15.3151533 L7.7275,16.3484933 L6.09634667,14.7168267 L7.12946667,13.54122 C6.98551333,13.2759 6.86891333,12.99386 6.78142667,12.6992067 L5.21898667,12.5983733 L5.21898667,10.2914533 L6.78142667,10.19062 C6.86891333,9.89618667 6.98573333,9.61392667 7.12946667,9.34882667 L6.09634667,8.17322 L7.72764667,6.5417 L8.90325333,7.57482 C9.16857333,7.43086667 9.45061333,7.31441333 9.74541333,7.22692667 L9.84624667,5.66426667 L12.1527267,5.66426667 L12.2537067,7.22692667 C12.5482867,7.31441333 12.8304,7.43079333 13.09572,7.57482 L14.2716933,6.5417 L15.9028467,8.17322 L14.8697267,9.34882667 C15.0135333,9.61414667 15.13028,9.89618667 15.2177667,10.19062 L16.7802067,10.2914533 L16.7802067,12.5985933 Z" id="Shape"></path>
                </g>
            </g>
        </g>
    </g>
</svg>