<?xml version="1.0" encoding="UTF-8"?>
<svg width="22px" height="22px" viewBox="0 0 22 22" version="1.1" xmlns="http://www.w3.org/2000/svg" xmlns:xlink="http://www.w3.org/1999/xlink">
    <!-- Generator: Sketch 55.1 (78136) - https://sketchapp.com -->
    <title>github-logo</title>
    <desc>Created with Sketch.</desc>
    <g id="Welcome" stroke="none" stroke-width="1" fill="none" fill-rule="evenodd">
        <g id="Desktop-HD" transform="translate(-32.000000, -996.000000)" fill="#030104" fill-rule="nonzero">
            <g id="github-logo" transform="translate(32.000000, 996.000000)">
                <path d="M11.0160417,10.9417917 C11.011,10.9417917 11.0052708,10.9415625 11,10.9413333 C10.9945,10.9415625 10.9887708,10.9417917 10.9837292,10.9417917 C9.61858333,10.9417917 8.4156875,10.5962083 7.7048125,11.248875 C7.27879167,11.6405208 7.09935417,12.112375 7.09935417,12.6204375 C7.09935417,14.74275 8.79977083,15.0033125 10.9835,15.0033125 L11.0160417,15.0033125 C13.1997708,15.0033125 14.9001875,14.7425208 14.9001875,12.6204375 C14.9001875,12.1121458 14.72075,11.6405208 14.2947292,11.248875 C13.5838542,10.5962083 12.3811875,10.9417917 11.0160417,10.9417917 Z M9.15933333,13.8418958 C8.74385417,13.8418958 8.40697917,13.3753125 8.40697917,12.799875 C8.40697917,12.2244375 8.74385417,11.7580833 9.15933333,11.7580833 C9.5748125,11.7580833 9.91214583,12.2244375 9.91214583,12.799875 C9.91214583,13.3753125 9.5748125,13.8418958 9.15933333,13.8418958 Z M12.8404375,13.8418958 C12.4247292,13.8418958 12.087625,13.3753125 12.087625,12.799875 C12.087625,12.2244375 12.4247292,11.7580833 12.8404375,11.7580833 C13.2556875,11.7580833 13.5927917,12.2244375 13.5927917,12.799875 C13.5927917,13.3753125 13.2559167,13.8418958 12.8404375,13.8418958 Z M11,0 C4.9245625,0 0,4.92479167 0,11 C0,17.0752083 4.9245625,22 11,22 C17.0749792,22 22,17.0752083 22,11 C22,4.92479167 17.0749792,0 11,0 Z M12.0032917,15.5148125 C11.8062083,15.5148125 11.4143333,15.5152708 11,15.5157292 C10.5854375,15.5152708 10.1933333,15.5148125 9.99647917,15.5148125 C9.12495833,15.5148125 5.67370833,15.448125 5.67370833,11.2878333 C5.67370833,10.3306042 6.001875,9.63027083 6.5388125,9.04704167 C6.45310417,8.83552083 6.44875,7.63422917 6.9059375,6.48427083 C6.9059375,6.48427083 7.95460417,6.5993125 9.54135417,7.68808333 C9.873875,7.5961875 10.4369375,7.55035417 11,7.55035417 C11.5626042,7.55035417 12.1256667,7.59595833 12.4586458,7.68808333 C14.0451667,6.5993125 15.0936042,6.48427083 15.0936042,6.48427083 C15.5507917,7.63422917 15.5466667,8.83552083 15.4609583,9.04704167 C15.998125,9.63027083 16.3262917,10.3308333 16.3262917,11.2878333 C16.3262917,15.448125 12.8748125,15.5148125 12.0032917,15.5148125 Z" id="Shape"></path>
            </g>
        </g>
    </g>
</svg>