<?xml version="1.0" encoding="UTF-8"?>
<svg width="103px" height="82px" viewBox="0 0 103 82" version="1.1" xmlns="http://www.w3.org/2000/svg" xmlns:xlink="http://www.w3.org/1999/xlink">
    <!-- Generator: Sketch 55.1 (78136) - https://sketchapp.com -->
    <title>home</title>
    <desc>Created with Sketch.</desc>
    <g id="Welcome" stroke="none" stroke-width="1" fill="none" fill-rule="evenodd">
        <g id="Header" transform="translate(-256.000000, -47.000000)" fill="#000000" fill-rule="nonzero">
            <g id="home" transform="translate(256.000000, 47.000000)">
                <path d="M51.999325,17 L15.0647962,47.0883314 C15.0647962,47.1307954 15.0539969,47.1932687 15.0323981,47.2784191 C15.0112493,47.3629025 15,47.4242642 15,47.4678399 L15,77.9354574 C15,79.0355207 15.4070013,79.9888496 16.2207791,80.7916645 C17.0343318,81.5949242 17.9977258,81.9991107 19.1111861,81.9991107 L43.7765029,81.9991107 L43.7765029,57.6243052 L60.2223722,57.6243052 L60.2223722,82 L84.887464,82 C86.0006993,82 86.9654432,81.5967028 87.777871,80.7916645 C88.5916487,79.9897389 89,79.035743 89,77.9354574 L89,47.4678399 C89,47.298873 88.9766014,47.1712585 88.9352038,47.0883314 L51.999325,17 Z" id="Path"></path>
                <path d="M102.289534,39.7286846 L88.2990929,28.1598904 L88.2990929,2.2252819 C88.2990929,1.63239288 88.1075473,1.14481236 87.7231134,0.763208238 C87.3418122,0.382049398 86.8517596,0.191469978 86.2545221,0.191469978 L73.9884393,0.191469978 C73.3918731,0.191469978 72.9020443,0.382049398 72.5182817,0.763208238 C72.1354141,1.14481236 71.9440922,1.63261552 71.9440922,2.2252819 L71.9440922,14.6202913 L56.3559454,1.65265308 C54.9945391,0.550810146 53.3757993,0 51.5015161,0 C49.6274566,0 48.0089406,0.550810146 46.6461917,1.65265308 L0.709917768,39.7286846 C0.284086707,40.0670966 0.0506963782,40.5226171 0.00728532942,41.0948006 C-0.035901951,41.6665389 0.112903963,42.1659193 0.454150609,42.5893796 L4.41507315,47.2933072 C4.7563198,47.674466 5.20296131,47.9075696 5.75678784,47.9928405 C6.26809838,48.0355873 6.77940893,47.8868641 7.29071948,47.5480068 L51.5001735,10.8699288 L95.710075,47.5477842 C96.0515454,47.8434494 96.4979632,47.9910594 97.0517897,47.9910594 L97.2437829,47.9910594 C97.7967143,47.907347 98.2424608,47.6726849 98.5854976,47.2924166 L102.546868,42.589157 C102.887443,42.1648061 103.036696,41.6663162 102.99239,41.0939101 C102.948756,40.523285 102.71447,40.0677646 102.289534,39.7286846 Z" id="Path"></path>
            </g>
        </g>
    </g>
</svg>