<?xml version="1.0" encoding="UTF-8"?>
<svg width="22px" height="22px" viewBox="0 0 22 22" version="1.1" xmlns="http://www.w3.org/2000/svg" xmlns:xlink="http://www.w3.org/1999/xlink">
    <!-- Generator: Sketch 55.1 (78136) - https://sketchapp.com -->
    <title>instagram</title>
    <desc>Created with Sketch.</desc>
    <g id="Welcome" stroke="none" stroke-width="1" fill="none" fill-rule="evenodd">
        <g id="Desktop-HD" transform="translate(-32.000000, -1132.000000)" fill="#000000" fill-rule="nonzero">
            <g id="instagram" transform="translate(32.000000, 1132.000000)">
                <path d="M13.1054688,11 C13.1054688,12.1628418 12.1628418,13.1054688 11,13.1054688 C9.8371582,13.1054688 8.89453125,12.1628418 8.89453125,11 C8.89453125,9.8371582 9.8371582,8.89453125 11,8.89453125 C12.1628418,8.89453125 13.1054688,9.8371582 13.1054688,11 Z" id="Path"></path>
                <path d="M15.9239502,7.27481081 C15.8227386,7.00054932 15.6612702,6.75230407 15.4514618,6.54853822 C15.2476959,6.33872985 14.9996185,6.17726136 14.7251892,6.0760498 C14.5026245,5.98960875 14.1682739,5.88671875 13.5524445,5.85868834 C12.886261,5.82830811 12.6865234,5.82176207 11,5.82176207 C9.31330873,5.82176207 9.11357116,5.82814027 8.44755553,5.85852051 C7.83172607,5.88671875 7.49720765,5.98960875 7.27481081,6.0760498 C7.00038148,6.17726136 6.75213623,6.33872985 6.54853822,6.54853822 C6.33872985,6.75230407 6.17726136,7.00038148 6.07588197,7.27481081 C5.98944092,7.49737549 5.88655091,7.83189391 5.85852051,8.44772337 C5.82814027,9.11373899 5.82159424,9.31347656 5.82159424,11.0001678 C5.82159424,12.6866913 5.82814027,12.8864288 5.85852051,13.5526123 C5.88655091,14.1684418 5.98944092,14.5027923 6.07588197,14.7253571 C6.17726136,14.9997864 6.33856201,15.2478638 6.54837038,15.4516296 C6.75213623,15.661438 7.0002136,15.8229065 7.27464293,15.924118 C7.49720765,16.0107269 7.83172607,16.1136169 8.44755553,16.1416473 C9.11357116,16.1720276 9.31314089,16.1784058 10.9998322,16.1784058 C12.6866913,16.1784058 12.8864288,16.1720276 13.5522766,16.1416473 C14.1681061,16.1136169 14.5026245,16.0107269 14.7251892,15.924118 C15.276062,15.7116242 15.7114563,15.2762298 15.9239502,14.7253571 C16.0103912,14.5027923 16.1132813,14.1684418 16.1414795,13.5526123 C16.1718597,12.8864288 16.1782379,12.6866913 16.1782379,11.0001678 C16.1782379,9.31347656 16.1718597,9.11373899 16.1414795,8.44772337 C16.1134491,7.83189391 16.0105591,7.49737549 15.9239502,7.27481081 L15.9239502,7.27481081 Z M11,14.2434692 C9.2085724,14.2434692 7.75636293,12.7914276 7.75636293,11 C7.75636293,9.2085724 9.2085724,7.75653076 11,7.75653076 C12.7912598,7.75653076 14.2434692,9.2085724 14.2434692,11 C14.2434692,12.7914276 12.7912598,14.2434692 11,14.2434692 Z M14.3717041,8.3862915 C13.9530945,8.3862915 13.6137085,8.04690554 13.6137085,7.6282959 C13.6137085,7.20968626 13.9530945,6.87030029 14.3717041,6.87030029 C14.7903137,6.87030029 15.1296997,7.20968626 15.1296997,7.6282959 C15.1295319,8.04690554 14.7903137,8.3862915 14.3717041,8.3862915 Z" id="Shape"></path>
                <path d="M11,0 C4.92579652,0 0,4.92579652 0,11 C0,17.0742035 4.92579652,22 11,22 C17.0742035,22 22,17.0742035 22,11 C22,4.92579652 17.0742035,0 11,0 Z M17.278305,13.6041412 C17.247757,14.276535 17.1408386,14.7355957 16.9847412,15.1374206 C16.6566009,15.9858856 15.9858856,16.6566009 15.1374206,16.9847412 C14.7357635,17.1408386 14.276535,17.2475891 13.6043091,17.278305 C12.9307404,17.309021 12.7155609,17.3164063 11.0001678,17.3164063 C9.28460693,17.3164063 9.06959535,17.309021 8.39585875,17.278305 C7.72363281,17.2475891 7.2644043,17.1408386 6.8627472,16.9847412 C6.44111634,16.8261261 6.05943297,16.5775452 5.74388121,16.2561188 C5.42262269,15.9407349 5.17404173,15.5588837 5.01542662,15.1374206 C4.85932923,14.7357635 4.75241087,14.276535 4.72186279,13.6043091 C4.69081117,12.9305725 4.68359375,12.7153931 4.68359375,11 C4.68359375,9.28460693 4.69081117,9.06942747 4.72169496,8.39585875 C4.75224303,7.72346498 4.85899352,7.2644043 5.01509095,6.86257937 C5.17370605,6.44111634 5.42245481,6.05926514 5.74388121,5.74388121 C6.05926514,5.42245481 6.44111634,5.17387389 6.86257937,5.01525879 C7.2644043,4.8591614 7.72346498,4.75241087 8.39585875,4.72169496 C9.06942747,4.690979 9.28460693,4.68359375 11,4.68359375 C12.7153931,4.68359375 12.9305725,4.690979 13.6041412,4.72186279 C14.276535,4.75241087 14.7355957,4.8591614 15.1374206,5.01509095 C15.5588837,5.17370605 15.9407349,5.42245481 16.2562866,5.74388121 C16.5775452,6.05943297 16.8262939,6.44111634 16.9847412,6.86257937 C17.1410065,7.2644043 17.247757,7.72346498 17.2784729,8.39585875 C17.3091888,9.06942747 17.3164062,9.28460693 17.3164062,11 C17.3164062,12.7153931 17.3091888,12.9305725 17.278305,13.6041412 L17.278305,13.6041412 Z" id="Shape"></path>
            </g>
        </g>
    </g>
</svg>