<?xml version="1.0" encoding="UTF-8"?>
<svg width="22px" height="22px" viewBox="0 0 22 22" version="1.1" xmlns="http://www.w3.org/2000/svg" xmlns:xlink="http://www.w3.org/1999/xlink">
    <!-- Generator: Sketch 55.1 (78136) - https://sketchapp.com -->
    <title>games-player-upgrading-level-symbol</title>
    <desc>Created with Sketch.</desc>
    <g id="Welcome" stroke="none" stroke-width="1" fill="none" fill-rule="evenodd">
        <g id="Portfolio-single" transform="translate(-32.000000, -697.000000)">
            <g id="Group-3" transform="translate(32.000000, 692.000000)">
                <g id="games-player-upgrading-level-symbol" transform="translate(0.000000, 5.000000)">
                    <circle id="Oval" fill="#000000" cx="11" cy="11" r="11"></circle>
                    <ellipse id="Oval" fill="#D8D8D8" fill-rule="nonzero" cx="15.3277049" cy="5.05305428" rx="1.04860656" ry="1.04160125"></ellipse>
                    <path d="M18.0965574,7.1497453 C18.0965574,7.1497453 16.8755464,6.19594154 16.8726503,6.19368894 C16.7161202,6.07145094 16.5414208,6.15257203 16.3726776,6.1920334 C16.3031421,6.20831733 16.2289071,6.21670355 16.1610929,6.23912109 C15.9955464,6.29410647 15.830929,6.35191441 15.6677869,6.41368476 C15.3616393,6.52970772 15.0270492,6.65029019 14.7646995,6.85069102 C14.716776,6.88722129 14.6680055,6.92801253 14.6368306,6.98022965 C14.5915847,7.00595825 14.5507104,7.04069729 14.5182514,7.08553236 L13.8174863,8.0523904 L12.8098634,8.55293111 C12.6239891,8.64517954 12.5486885,8.86968058 12.6416667,9.05428601 C12.707623,9.18526305 12.8404372,9.26090188 12.9784426,9.26090188 C13.0349454,9.26090188 13.092377,9.24820042 13.1463661,9.2213048 L14.2368579,8.67964718 C14.2912842,8.65264301 14.3383607,8.61288309 14.3739071,8.56370564 L14.8719672,7.87657829 C15.0537705,8.33882463 15.2914754,8.8799666 15.4483607,9.22993528 L14.2348634,9.48040919 C14.057541,9.5169666 13.9241257,9.66287056 13.9043716,9.84174948 L13.5688798,12.8827996 C13.5604918,12.958547 13.5748087,13.0309562 13.6038798,13.0959019 L14.3650546,13.0959019 C14.3820765,13.0577432 14.3950546,13.017142 14.3998907,12.9733382 L14.7022951,10.2321837 L16.0154645,9.96111065 L16.3406011,10.2573424 C16.3270492,10.3035344 16.3203279,10.3524405 16.3222951,10.4031106 L16.4183607,12.8612505 C16.421612,12.9443528 16.4477049,13.0252025 16.4938798,13.094762 L17.5464754,14.6826075 L18.4487432,14.6826075 C18.4864754,14.5576284 18.4722131,14.4181023 18.3944262,14.3005866 L17.3324317,12.6986555 L17.2413388,10.3677745 C17.2396448,10.3250835 17.2316393,10.284048 17.2189891,10.2451837 L17.2185519,10.2357933 L16.7541257,7.05204175 L17.5035246,7.63744885 L17.6228962,8.98706054 C17.6401366,9.18157203 17.8043443,9.32804593 17.9972951,9.32799165 C18.0083333,9.32799165 18.0195355,9.32747599 18.0306557,9.32649896 C18.2376503,9.30839666 18.3906557,9.12718372 18.3725137,8.92149061 L18.2388251,7.4108309 C18.2297541,7.30797077 18.1782514,7.21355115 18.0965574,7.1497453 Z" id="Path" fill="#D8D8D8" fill-rule="nonzero"></path>
                    <polygon id="Path" fill="#D8D8D8" fill-rule="nonzero" points="15.9913388 13.4282025 12.9935519 13.4282025 12.9935519 11.8063236 9.99568306 11.8063236 9.99568306 10.0908121 4 10.0908121 4 10.2319395 4 14.2666618 4 16.9424363 18.9892077 16.9778539 18.9578962 16.9424363 18.9892077 16.9424363 18.9892077 15.0147724 15.9913388 15.0147724"></polygon>
                </g>
            </g>
        </g>
    </g>
</svg>