<?xml version="1.0" encoding="UTF-8"?>
<svg width="22px" height="22px" viewBox="0 0 22 22" version="1.1" xmlns="http://www.w3.org/2000/svg" xmlns:xlink="http://www.w3.org/1999/xlink">
    <!-- Generator: Sketch 55.1 (78136) - https://sketchapp.com -->
    <title>placeholder</title>
    <desc>Created with Sketch.</desc>
    <g id="Welcome" stroke="none" stroke-width="1" fill="none" fill-rule="evenodd">
        <g id="Desktop-HD" transform="translate(-32.000000, -475.000000)" fill="#000000" fill-rule="nonzero">
            <g id="placeholder" transform="translate(32.000000, 475.000000)">
                <circle id="Oval" cx="11.0320467" cy="8.10861333" r="1.77092667"></circle>
                <path d="M10.9997067,0 C4.92484667,0 7.33333333e-05,4.92492 7.33333333e-05,10.99978 C7.33333333e-05,17.0744933 4.92484667,21.99978 10.9997067,21.99978 C17.0745667,21.99978 21.9997067,17.0744933 21.9997067,10.99978 C21.9997067,4.92492 17.0745667,0 10.9997067,0 Z M10.9769,5.03638667 C10.9846733,5.03638667 10.9923,5.03602 10.9999267,5.03565333 C11.0075533,5.03602 11.0151067,5.03638667 11.0229533,5.03638667 C12.87638,5.06564667 14.3841133,6.59750667 14.3841133,8.45137333 C14.3841133,10.71796 11.9623533,13.0130733 10.9999267,13.8354333 C10.9356133,13.7804333 10.8643333,13.7184667 10.7880667,13.65056 C10.7867467,13.6493867 10.7855733,13.6484333 10.7844733,13.6473333 C9.71938,12.7008933 7.61581333,10.5640333 7.61581333,8.45137333 C7.61574,6.59750667 9.12362,5.06572 10.9769,5.03638667 Z M11.0476667,17.0316667 C9.01904667,17.0316667 6.96527333,16.4496933 6.96527333,15.3378133 C6.96527333,14.5574733 7.97654,14.0385667 9.28033333,13.79818 C9.53252667,14.0516933 9.77122667,14.2752133 9.98066667,14.4617733 C8.56049333,14.6203933 7.72610667,15.07 7.72610667,15.3375933 C7.72610667,15.66642 8.98707333,16.2706867 11.0476667,16.2706867 C13.10826,16.2706867 14.3694467,15.66642 14.3694467,15.3375933 C14.3694467,15.0645 13.49986,14.6036 12.0281333,14.45378 C12.2394067,14.2650933 12.4800133,14.03952 12.7341133,13.7833667 C14.0770667,14.0171533 15.1302067,14.5412667 15.1302067,15.3378133 C15.1302067,16.4496933 13.0764333,17.0316667 11.0476667,17.0316667 Z" id="Shape"></path>
            </g>
        </g>
    </g>
</svg>