<?xml version="1.0" encoding="UTF-8"?>
<svg width="22px" height="22px" viewBox="0 0 22 22" version="1.1" xmlns="http://www.w3.org/2000/svg" xmlns:xlink="http://www.w3.org/1999/xlink">
    <!-- Generator: Sketch 55.1 (78136) - https://sketchapp.com -->
    <title>phone-symbol-of-an-auricular-inside-a-circle</title>
    <desc>Created with Sketch.</desc>
    <g id="Welcome" stroke="none" stroke-width="1" fill="none" fill-rule="evenodd">
        <g id="Desktop-HD" transform="translate(-32.000000, -373.000000)" fill="#000000" fill-rule="nonzero">
            <g id="phone-symbol-of-an-auricular-inside-a-circle" transform="translate(32.000000, 373.000000)">
                <path d="M10.9822099,0 C4.91736214,0 4.52674897e-05,4.91731687 4.52674897e-05,10.9821646 C4.52674897e-05,17.0469218 4.91736214,21.9643292 10.9822099,21.9643292 C17.0470576,21.9643292 21.964284,17.0468765 21.964284,10.9821646 C21.964284,4.91731687 17.0470576,0 10.9822099,0 Z M16.7815185,16.0241934 L15.9021975,16.9036955 C15.7452099,17.0604568 15.2855185,17.1582798 15.2707613,17.1582798 C12.4889835,17.1825432 9.81055144,16.0898765 7.84259259,14.1217366 C5.86924691,12.1472593 4.77531276,9.45927572 4.80469136,6.66812757 C4.80469136,6.66686008 4.90536626,6.22034156 5.06221811,6.06498354 L5.94149383,5.18557202 C6.26325514,4.86231687 6.88133745,4.71623868 7.31432099,4.86109465 L7.49928395,4.92279424 C7.931,5.0675144 8.38426337,5.54486008 8.50354321,5.98463374 L8.94585185,7.60801646 C9.06513169,8.04905761 8.90425103,8.67651029 8.58258025,8.9982716 L7.99546091,9.58548148 C8.57189712,11.7194815 10.2462963,13.3941975 12.3806584,13.972037 L12.9675514,13.3846914 C13.2908066,13.0614362 13.9180329,12.9006914 14.3581235,13.0197901 L15.9812798,13.4636831 C16.421144,13.5845473 16.8983992,14.0349588 17.0430741,14.4665391 L17.1047737,14.6541728 C17.2481811,15.0859342 17.1032346,15.7038807 16.7815185,16.0241934 Z" id="Shape"></path>
            </g>
        </g>
    </g>
</svg>