<?xml version="1.0" encoding="UTF-8"?>
<svg width="96px" height="82px" viewBox="0 0 96 82" version="1.1" xmlns="http://www.w3.org/2000/svg" xmlns:xlink="http://www.w3.org/1999/xlink">
    <!-- Generator: Sketch 55.1 (78136) - https://sketchapp.com -->
    <title>briefcase</title>
    <desc>Created with Sketch.</desc>
    <g id="Welcome" stroke="none" stroke-width="1" fill="none" fill-rule="evenodd">
        <g id="Header" transform="translate(-550.000000, -47.000000)" fill="#000000" fill-rule="nonzero">
            <g id="briefcase" transform="translate(550.000000, 47.000000)">
                <path d="M60.0005864,56.4998139 C60.0005864,57.4207093 59.6607763,58.2184216 58.9828449,58.8903459 C58.304163,59.5641309 57.5001398,59.9003722 56.5715257,59.9003722 L39.4288495,59.9003722 C38.4996726,59.9003722 37.6963999,59.5641309 37.017718,58.8903459 C36.3392237,58.2186077 35.9999765,57.4208954 35.9999765,56.4998139 L35.9999765,48 L0,48 L0,73.5007443 C0,75.8378722 0.838923669,77.8385727 2.51770919,79.503032 C4.19611944,81.1676773 6.21433974,82 8.57161956,82 L87.4289434,82 C89.7856603,82 91.8036929,81.1676773 93.4822908,79.503032 C95.1614516,77.8385727 96,75.8378722 96,73.5007443 L96,48 L60.0005864,48 L60.0005864,56.4998139 L60.0005864,56.4998139 Z" id="Path"></path>
                <rect id="Rectangle" x="41" y="48" width="14" height="7"></rect>
                <path d="M93.4822859,16.2863185 C91.8038724,14.6019229 89.7856481,13.7601958 87.4289266,13.7601958 L68.5712141,13.7601958 L68.5712141,5.15974396 C68.5712141,3.72630395 68.0715366,2.50823763 67.0712434,1.50479197 C66.0720761,0.501911096 64.8571261,0 63.4290204,0 L32.5717301,0 C31.1434368,0 29.9292374,0.501911096 28.9289442,1.50479197 C27.928651,2.50767284 27.4289735,3.72611568 27.4289735,5.15974396 L27.4289735,13.7601958 L8.57163631,13.7601958 C6.21453953,13.7601958 4.19631528,14.6019229 2.51771411,16.2863185 C0.838925309,17.9705258 0,19.9943608 0,22.359518 L0,43 L96,43 L96,22.359518 C96,19.9943608 95.1616376,17.9705258 93.4822859,16.2863185 Z M61.7145806,13.7601958 L34.2859823,13.7601958 L34.2859823,6.87972137 L61.7145806,6.87972137 L61.7145806,13.7601958 Z" id="Shape"></path>
            </g>
        </g>
    </g>
</svg>