<?xml version="1.0" encoding="UTF-8"?>
<svg width="22px" height="22px" viewBox="0 0 22 22" version="1.1" xmlns="http://www.w3.org/2000/svg" xmlns:xlink="http://www.w3.org/1999/xlink">
    <!-- Generator: Sketch 55.1 (78136) - https://sketchapp.com -->
    <title>share</title>
    <desc>Created with Sketch.</desc>
    <g id="Welcome" stroke="none" stroke-width="1" fill="none" fill-rule="evenodd">
        <g id="Post" transform="translate(-32.000000, -693.000000)" fill="#000000" fill-rule="nonzero">
            <g id="share" transform="translate(32.000000, 693.000000)">
                <path d="M10.9997067,0 C4.92484667,0 7.33333333e-05,4.92514 7.33333333e-05,10.99978 C7.33333333e-05,17.07442 4.92484667,22 10.9997067,22 C17.0745667,22 21.9999267,17.0747133 21.9999267,10.99978 C21.9999267,4.92484667 17.0745667,0 10.9997067,0 Z M9.77636,10.99978 C9.77636,11.2295333 9.73448667,11.44792 9.6613,11.65252 L12.73162,13.1296 C13.0850133,12.7427667 13.5918933,12.4993 14.1569267,12.4993 C15.2241467,12.4993 16.08948,13.36434 16.08948,14.4314867 C16.08948,15.4988533 15.2239267,16.36426 14.1564867,16.36426 C13.0892667,16.36426 12.2234933,15.4988533 12.2234933,14.4314867 C12.2234933,14.3291867 12.2341267,14.2293067 12.24938,14.1315533 L8.98106,12.55958 C8.66154667,12.7933667 8.26899333,12.9327733 7.84292667,12.9327733 C6.77556,12.9327733 5.91015333,12.0677333 5.91015333,10.9996333 C5.91015333,9.93263333 6.77556,9.06744667 7.84292667,9.06744667 C8.26899333,9.06744667 8.66169333,9.20685333 8.98128,9.44042 L12.24982,7.86881333 C12.23442,7.77084 12.2239333,7.6714 12.2239333,7.56888 C12.2239333,6.50129333 13.0894867,5.63610667 14.1569267,5.63610667 C15.2241467,5.63610667 16.0897,6.50129333 16.0897,7.56888 C16.0897,8.63624667 15.2241467,9.50165333 14.1569267,9.50165333 C13.59226,9.50165333 13.0850133,9.2576 12.73162,8.87113333 L9.6613,10.3476267 C9.73456,10.5519333 9.77636,10.7708333 9.77636,10.99978 Z" id="Shape"></path>
            </g>
        </g>
    </g>
</svg>