<?xml version="1.0" encoding="UTF-8"?>
<svg width="22px" height="22px" viewBox="0 0 22 22" version="1.1" xmlns="http://www.w3.org/2000/svg" xmlns:xlink="http://www.w3.org/1999/xlink">
    <!-- Generator: Sketch 55.1 (78136) - https://sketchapp.com -->
    <title>tag (1)</title>
    <desc>Created with Sketch.</desc>
    <g id="Welcome" stroke="none" stroke-width="1" fill="none" fill-rule="evenodd">
        <g id="Post" transform="translate(-32.000000, -621.000000)" fill="#000000" fill-rule="nonzero">
            <g id="tag-(1)" transform="translate(32.000000, 621.000000)">
                <path d="M15.35,6.4 L12.1,6.4 C12.05,6.4 11.95,6.45 11.9,6.45 L7.15,11.2 C7.05,11.3 7.05,11.45 7.15,11.55 L10.4,14.8 C10.5,14.9 10.65,14.9 10.75,14.8 L15.5,10.05 C15.55,10 15.55,9.95 15.55,9.85 L15.55,6.6 C15.6,6.5 15.5,6.4 15.35,6.4 Z M13.6,9.4 C13.05,9.4 12.6,8.95 12.6,8.4 C12.6,7.85 13.05,7.4 13.6,7.4 C14.15,7.4 14.6,7.85 14.6,8.4 C14.6,8.95 14.15,9.4 13.6,9.4 Z" id="Shape"></path>
                <path d="M11,0 C4.9,0 0,4.9 0,11 C0,17.1 4.9,22 11,22 C17.1,22 22,17.1 22,11 C22,4.9 17.1,0 11,0 Z M17.6,10.6 C17.6,10.75 17.55,10.85 17.45,10.95 L10.95,17.45 C10.75,17.65 10.45,17.65 10.25,17.45 L4.55,11.75 C4.35,11.55 4.35,11.25 4.55,11.05 L11.05,4.55 C11.15,4.45 11.25,4.4 11.4,4.4 L17.1,4.4 C17.4,4.4 17.6,4.6 17.6,4.9 C17.6,4.9 17.6,10.6 17.6,10.6 L17.6,10.6 Z" id="Shape"></path>
            </g>
        </g>
    </g>
</svg>