<?xml version="1.0" encoding="UTF-8"?>
<svg width="22px" height="22px" viewBox="0 0 22 22" version="1.1" xmlns="http://www.w3.org/2000/svg" xmlns:xlink="http://www.w3.org/1999/xlink">
    <!-- Generator: Sketch 55.1 (78136) - https://sketchapp.com -->
    <title>quotation-mark</title>
    <desc>Created with Sketch.</desc>
    <g id="Welcome" stroke="none" stroke-width="1" fill="none" fill-rule="evenodd">
        <g id="Portfolio-single" transform="translate(-32.000000, -617.000000)" fill="#000000" fill-rule="nonzero">
            <g id="Group-4" transform="translate(32.000000, 612.000000)">
                <g id="quotation-mark" transform="translate(0.000000, 5.000000)">
                    <path d="M10.9746752,0 C4.92326045,0 0,4.92326045 0,10.9746752 C0,17.02609 4.92326045,21.9493505 10.9746752,21.9493505 C17.02609,21.9493505 21.9493505,17.02609 21.9493505,10.9746752 C21.9493505,4.92326045 17.0261608,0 10.9746752,0 Z M5.6005209,16.3692026 C5.47700965,16.4528167 5.1669582,16.5263859 4.98558199,16.3249904 L4.65091318,15.90409 C4.48906109,15.6303987 4.68508039,15.3765852 4.81198714,15.2713248 C5.41532476,14.7708424 5.85405145,14.3836849 6.1278135,14.1098521 C6.66465595,13.5452797 7.06150482,12.9801415 7.32352412,12.416701 C7.38344051,12.2878842 7.23050161,12.2061093 7.15106109,12.1800772 C5.1726881,11.5316785 4.18318328,10.3885981 4.18318328,8.75104823 C4.18318328,7.78623151 4.50363344,7.00222508 5.14418006,6.39952412 C5.78500965,5.79646945 6.58776206,5.49511897 7.55222508,5.49511897 C8.41142765,5.49511897 9.17279743,5.88694534 9.83590997,6.67088103 C10.4842379,7.40926045 10.8081543,8.20840514 10.8081543,9.06760772 C10.8082251,11.5857235 9.07241801,14.0195177 5.6005209,16.3692026 Z M13.1299678,16.3692026 C13.0064566,16.4528167 12.6964051,16.5263859 12.5150289,16.3249904 L12.1803601,15.90409 C12.018508,15.6303987 12.2145273,15.3765852 12.3414341,15.2713248 C12.944701,14.7708424 13.3834984,14.3836849 13.6572605,14.1098521 C14.1941029,13.5452797 14.5909518,12.9801415 14.8530418,12.416701 C14.9129582,12.2878842 14.7600193,12.2061093 14.6805788,12.1800772 C12.7022058,11.5316785 11.712701,10.3885981 11.712701,8.75104823 C11.712701,7.78623151 12.0331511,7.00222508 12.6736977,6.39952412 C13.3145981,5.79646945 14.1172797,5.49511897 15.0817428,5.49511897 C15.9409453,5.49511897 16.7023151,5.88694534 17.3654277,6.67088103 C18.0136849,7.40926045 18.337672,8.20840514 18.337672,9.06760772 C18.337672,11.5857235 16.601865,14.0195177 13.1299678,16.3692026 Z" id="Shape"></path>
                </g>
            </g>
        </g>
    </g>
</svg>