<?xml version="1.0" encoding="UTF-8"?>
<svg width="22px" height="22px" viewBox="0 0 22 22" version="1.1" xmlns="http://www.w3.org/2000/svg" xmlns:xlink="http://www.w3.org/1999/xlink">
    <!-- Generator: Sketch 55.1 (78136) - https://sketchapp.com -->
    <title>internet</title>
    <desc>Created with Sketch.</desc>
    <g id="Welcome" stroke="none" stroke-width="1" fill="none" fill-rule="evenodd">
        <g id="Desktop-HD" transform="translate(-32.000000, -441.000000)" fill="#000000" fill-rule="nonzero">
            <g id="internet" transform="translate(32.000000, 441.000000)">
                <path d="M14.8210333,7.05950667 C14.4122733,6.66314 13.9425,6.32932667 13.4268933,6.07412667 C13.67586,6.45245333 13.89498,6.89025333 14.07714,7.37850667 C14.33872,7.28471333 14.58732,7.17801333 14.8210333,7.05950667 Z" id="Path"></path>
                <path d="M8.25755333,10.61962 L10.6194,10.61962 L10.6194,8.61835333 C9.91356667,8.5877 9.23112667,8.48826 8.59532667,8.32582667 C8.40495333,9.02117333 8.28571333,9.79982667 8.25755333,10.61962 Z" id="Path"></path>
                <path d="M8.54912667,13.4898867 C9.19900667,13.31946 9.89802,13.2143 10.6194,13.1823267 L10.6194,11.38038 L8.2577,11.38038 C8.28402667,12.1286 8.38632667,12.8422067 8.54912667,13.4898867 Z" id="Path"></path>
                <path d="M8.83021333,7.60217333 C9.39106667,7.7418 9.99401333,7.82796667 10.6194,7.85664 L10.6194,5.522 C10.5092533,5.52962667 10.40028,5.54048 10.29204,5.55456 C9.70742667,5.90905333 9.19541333,6.6407 8.83021333,7.60217333 Z" id="Path"></path>
                <path d="M7.10761333,14.8712667 C7.59792,15.3640667 8.18092,15.7640267 8.82772,16.0437933 C8.51444,15.5968267 8.24552667,15.05702 8.03271333,14.4452 C7.70066,14.5676667 7.39068,14.7101533 7.10761333,14.8712667 Z" id="Path"></path>
                <path d="M8.82112,5.95906667 C8.23306,6.21434 7.69860667,6.56956667 7.23814667,7.00326 C7.5031,7.14530667 7.78968667,7.27012 8.09292,7.37909333 C8.29385333,6.84024 8.53981333,6.36247333 8.82112,5.95906667 Z" id="Path"></path>
                <path d="M7.86096667,8.10179333 C7.44751333,7.95498 7.06119333,7.77942 6.70912,7.57687333 C6.03218,8.42365333 5.60083333,9.47371333 5.52192667,10.61962 L7.49562,10.61962 C7.52356,9.71329333 7.65182,8.86314 7.86096667,8.10179333 Z" id="Path"></path>
                <path d="M7.49584,11.38038 L5.522,11.38038 C5.59658,12.4650533 5.98605333,13.4647333 6.60154,14.28636 C6.96784,14.0662867 7.37528,13.87496 7.81462,13.71634 C7.63356,13.0023667 7.52209333,12.2153533 7.49584,11.38038 Z" id="Path"></path>
                <path d="M10.3059733,16.44742 C10.4095933,16.4603267 10.51402,16.4708133 10.6194,16.4780733 L10.6194,13.9441133 C9.97179333,13.9745467 9.34640667,14.0673867 8.76685333,14.21684 C9.13762667,15.2715933 9.68058667,16.07518 10.3059733,16.44742 Z" id="Path"></path>
                <path d="M14.3561733,13.7133333 C14.7474067,13.8550133 15.1142933,14.0222133 15.4497933,14.2147133 C16.0349933,13.4067267 16.4055467,12.4342533 16.478,11.3806 L14.6743667,11.3806 C14.6481867,12.21418 14.5370867,13.0003133 14.3561733,13.7133333 Z" id="Path"></path>
                <path d="M13.4208067,15.9289533 C13.9942733,15.6461067 14.5108333,15.2660933 14.9503933,14.81062 C14.6982,14.6750267 14.42562,14.55344 14.13676,14.4473267 C13.9417667,15.00664 13.7002067,15.5059667 13.4208067,15.9289533 Z" id="Path"></path>
                <path d="M10.99978,0 C4.92492,0 0.00022,4.92514 0.00022,10.99978 C0.00022,17.07442 4.92492,22 10.99978,22 C17.07464,22 21.99978,17.0747133 21.99978,10.99978 C21.99978,4.92484667 17.0747133,0 10.99978,0 Z M11,17.63388 C7.34213333,17.63388 4.36612,14.6580867 4.36612,11 C4.36612,7.34191333 7.34213333,4.36612 11,4.36612 C14.6578667,4.36612 17.63388,7.34191333 17.63388,11 C17.63388,14.6580867 14.6578667,17.63388 11,17.63388 Z" id="Shape"></path>
                <path d="M11.9327267,5.58814667 C11.7513,5.55698 11.5670133,5.53490667 11.3802333,5.52192667 L11.3802333,7.86397333 C12.0647267,7.84380667 12.7260467,7.75309333 13.33904,7.60019333 C12.9854267,6.66981333 12.4941667,5.9543 11.9327267,5.58814667 Z" id="Path"></path>
                <path d="M14.3088733,8.10120667 C14.5183133,8.86255333 14.6465,9.71314667 14.67444,10.61962 L16.4778533,10.61962 C16.40122,9.50297333 15.9896,8.47762667 15.34236,7.64265333 C15.0226267,7.81704 14.67686,7.97074667 14.3088733,8.10120667 Z" id="Path"></path>
                <path d="M11.3802333,16.478 C11.5628333,16.4656067 11.74316,16.4439733 11.9205533,16.4141267 C12.52196,16.0282467 13.0430667,15.2406467 13.4027667,14.21794 C12.7711467,14.05492 12.0860667,13.95812 11.3802333,13.9368533 L11.3802333,16.478 Z" id="Path"></path>
                <path d="M13.5741467,8.32392 C12.8859867,8.50006667 12.14466,8.60354 11.3802333,8.62480667 L11.3802333,10.61962 L13.9127267,10.61962 C13.8843467,9.79931333 13.7648867,9.01985333 13.5741467,8.32392 Z" id="Path"></path>
                <path d="M13.9125067,11.38038 L11.3802333,11.38038 L11.3802333,13.17602 C12.1672467,13.19714 12.9240467,13.3023 13.6222533,13.4845333 C13.7844667,12.8384667 13.8862533,12.1266933 13.9125067,11.38038 Z" id="Path"></path>
            </g>
        </g>
    </g>
</svg>