<?xml version="1.0" encoding="UTF-8"?>
<svg width="30px" height="30px" viewBox="0 0 30 30" version="1.1" xmlns="http://www.w3.org/2000/svg" xmlns:xlink="http://www.w3.org/1999/xlink">
    <!-- Generator: Sketch 55.1 (78136) - https://sketchapp.com -->
    <title>internet (1)</title>
    <desc>Created with Sketch.</desc>
    <g id="Welcome" stroke="none" stroke-width="1" fill="none" fill-rule="evenodd">
        <g id="Post" transform="translate(-368.000000, -1908.000000)" fill-rule="nonzero">
            <g id="internet-(1)" transform="translate(368.000000, 1908.000000)">
                <path d="M14.9956707,6.09756098e-05 C6.71378049,6.09756098e-05 0,6.71378049 0,14.9956707 C0,23.277561 6.71378049,29.9912805 14.9956707,29.9912805 C18.3211585,29.9912805 21.3931707,28.9081098 23.879939,27.0762805 C23.7476829,27.067378 23.6185976,27.0093902 23.5230488,26.9026829 L21.0669512,24.1579268 L19.7442073,26.1879878 L18.6520732,20.6701829 L24.2689634,22.417439 L21.8512195,23.4561585 L24.3073171,26.2010366 C24.4212805,26.3282317 24.459939,26.4952439 24.43,26.6509146 C27.822378,23.9017073 29.9913415,19.7023171 29.9913415,14.9956098 C29.9913415,6.71378049 23.277561,6.09756098e-05 14.9956707,6.09756098e-05 Z" id="Path" fill="#000000"></path>
                <g id="Group" transform="translate(3.719512, 12.500000)" fill="#FFFFFF">
                    <polygon id="Path" points="1.88103659 3.55768293 2.01853659 4.32170732 2.03378049 4.32682927 2.20189024 3.55768293 3.3122561 0.0329268293 4.07628049 0.0329268293 5.18670732 3.55768293 5.365 4.39304878 5.3802439 4.39304878 5.55341463 3.55768293 6.44481707 0.0329268293 7.38207317 0.0329268293 5.78268293 5.54420732 5.01859756 5.54420732 3.92859756 2.14676829 3.68920732 1.16365854 3.67396341 1.16365854 3.4447561 2.14676829 2.37512195 5.54420732 1.60597561 5.54420732 0.00658536585 0.0329268293 0.948902439 0.0329268293"></polygon>
                    <polygon id="Path" points="9.77615854 3.55768293 9.91365854 4.32170732 9.92890244 4.32682927 10.0970122 3.55768293 11.207378 0.0329268293 11.9714634 0.0329268293 13.0818902 3.55768293 13.260061 4.39304878 13.2754268 4.39304878 13.4485976 3.55768293 14.34 0.0329268293 15.2771341 0.0329268293 13.6778049 5.54420732 12.9137195 5.54420732 11.8236585 2.14676829 11.5842683 1.16365854 11.5690244 1.16365854 11.3397561 2.14676829 10.270122 5.54420732 9.50097561 5.54420732 7.90158537 0.0329268293 8.84390244 0.0329268293"></polygon>
                    <polygon id="Path" points="17.6712805 3.55768293 17.8087805 4.32170732 17.8240854 4.32682927 17.9921951 3.55768293 19.102622 0.0329268293 19.8666463 0.0329268293 20.9770732 3.55768293 21.1553049 4.39304878 21.1706098 4.39304878 21.3437805 3.55768293 22.2351829 0.0329268293 23.172378 0.0329268293 21.5730488 5.54420732 20.8090244 5.54420732 19.7189634 2.14676829 19.4795732 1.16365854 19.4642683 1.16365854 19.235061 2.14676829 18.1653659 5.54420732 17.3962805 5.54420732 15.7968902 0.0329268293 16.7392073 0.0329268293"></polygon>
                </g>
            </g>
        </g>
    </g>
</svg>